<svg width="86" height="870" viewBox="0 0 86 870" fill="none" xmlns="http://www.w3.org/2000/svg">
<path d="M85.858 35.6364H63.1307C62.8277 33.303 62.2064 31.197 61.267 29.3182C60.3277 27.4394 59.0852 25.8333 57.5398 24.5C55.9943 23.1667 54.161 22.1515 52.0398 21.4545C49.9489 20.7273 47.6307 20.3636 45.0852 20.3636C40.5701 20.3636 36.6761 21.4697 33.4034 23.6818C30.161 25.8939 27.661 29.0909 25.9034 33.2727C24.1761 37.4545 23.3125 42.5151 23.3125 48.4545C23.3125 54.6364 24.1913 59.8182 25.9489 64C27.7367 68.1515 30.2367 71.2879 33.4489 73.4091C36.6913 75.5 40.5246 76.5455 44.9489 76.5455C47.4337 76.5455 49.6913 76.2273 51.7216 75.5909C53.7822 74.9545 55.5852 74.0303 57.1307 72.8182C58.7064 71.5758 59.9943 70.0758 60.9943 68.3182C62.0246 66.5303 62.7367 64.5152 63.1307 62.2727L85.858 62.4091C85.464 66.5303 84.2671 70.5909 82.2671 74.5909C80.2974 78.5909 77.5852 82.2424 74.1307 85.5455C70.6761 88.8182 66.464 91.4242 61.4943 93.3636C56.5549 95.303 50.8883 96.2727 44.4943 96.2727C36.0701 96.2727 28.5246 94.4242 21.858 90.7273C15.2216 87 9.97917 81.5758 6.13068 74.4545C2.2822 67.3333 0.357955 58.6667 0.357955 48.4545C0.357955 38.2121 2.3125 29.5303 6.22159 22.4091C10.1307 15.2879 15.4186 9.87879 22.0852 6.18182C28.7519 2.48485 36.2216 0.63636 44.4943 0.63636C50.1307 0.63636 55.3428 1.42424 60.1307 3C64.9186 4.54545 69.1307 6.81818 72.767 9.81818C76.4034 12.7879 79.358 16.4394 81.6307 20.7727C83.9034 25.1061 85.3125 30.0606 85.858 35.6364ZM13.608 250L13.608 156.909H36.108L36.108 231.727H74.8352V250H13.608ZM54.233 311.909V405H31.733V311.909H54.233ZM10.5455 560L10.5455 466.909H75.4545V485.182H33.0455V504.273H72.1364V522.591H33.0455V541.727H75.4545V560H10.5455ZM82.5852 621.909V715H63.4943L26.4489 661.273H25.858L25.858 715H3.35795L3.35795 621.909H22.7216L59.358 675.545H60.1307V621.909H82.5852ZM3.6875 795.182L3.6875 776.909H82.3693V795.182H54.142L54.142 870H31.9602L31.9602 795.182H3.6875Z" fill="#E3EEEE" style="mix-blend-mode:overlay"/>
</svg>
