<svg width="93" height="870" viewBox="0 0 93 870" fill="none" xmlns="http://www.w3.org/2000/svg">
<path d="M61.6136 29.8182C61.3106 26.4848 59.9621 23.8939 57.5682 22.0455C55.2045 20.1667 51.8258 19.2273 47.4318 19.2273C44.5227 19.2273 42.0985 19.6061 40.1591 20.3636C38.2197 21.1212 36.7652 22.1667 35.7955 23.5C34.8258 24.803 34.3258 26.303 34.2955 28C34.2348 29.3939 34.5076 30.6212 35.1136 31.6818C35.75 32.7424 36.6591 33.6818 37.8409 34.5C39.053 35.2879 40.5076 35.9848 42.2045 36.5909C43.9015 37.197 45.8106 37.7273 47.9318 38.1818L55.9318 40C60.5379 41 64.5985 42.3333 68.1136 44C71.6591 45.6667 74.6288 47.6515 77.0227 49.9545C79.447 52.2576 81.2803 54.9091 82.5227 57.9091C83.7652 60.9091 84.4015 64.2727 84.4318 68C84.4015 73.8788 82.9167 78.9242 79.9773 83.1364C77.0379 87.3485 72.8106 90.5758 67.2955 92.8182C61.8106 95.0606 55.1894 96.1818 47.4318 96.1818C39.6439 96.1818 32.8561 95.0152 27.0682 92.6818C21.2803 90.3485 16.7803 86.803 13.5682 82.0455C10.3561 77.2879 8.70455 71.2727 8.61364 64H30.1591C30.3409 67 31.1439 69.5 32.5682 71.5C33.9924 73.5 35.947 75.0152 38.4318 76.0455C40.947 77.0758 43.8561 77.5909 47.1591 77.5909C50.1894 77.5909 52.7652 77.1818 54.8864 76.3636C57.0379 75.5455 58.6894 74.4091 59.8409 72.9545C60.9924 71.5 61.5833 69.8333 61.6136 67.9545C61.5833 66.197 61.0379 64.697 59.9773 63.4545C58.9167 62.1818 57.2803 61.0909 55.0682 60.1818C52.8864 59.2424 50.0985 58.3788 46.7045 57.5909L36.9773 55.3182C28.9167 53.4697 22.5682 50.4848 17.9318 46.3636C13.2955 42.2121 10.9924 36.6061 11.0227 29.5455C10.9924 23.7879 12.5379 18.7424 15.6591 14.4091C18.7803 10.0758 23.0985 6.69697 28.6136 4.27273C34.1288 1.84848 40.4167 0.63636 47.4773 0.63636C54.6894 0.63636 60.947 1.86363 66.25 4.31818C71.5833 6.74242 75.7197 10.1515 78.6591 14.5455C81.5985 18.9394 83.0985 24.0303 83.1591 29.8182H61.6136ZM14.0455 250L14.0455 156.909H78.9545V175.182H36.5455V194.273H75.6364V212.591H36.5455V231.727H78.9545V250H14.0455ZM11.1705 405L11.1705 311.909H49.625C56.5947 311.909 62.6099 313.167 67.6705 315.682C72.7614 318.167 76.6856 321.742 79.4432 326.409C82.2008 331.045 83.5795 336.545 83.5795 342.909C83.5795 349.364 82.1705 354.848 79.3523 359.364C76.5341 363.848 72.5341 367.273 67.3523 369.636C62.1705 371.97 56.0341 373.136 48.9432 373.136H24.625V355.409H44.7614C48.1553 355.409 50.9886 354.97 53.2614 354.091C55.5644 353.182 57.3068 351.818 58.4886 350C59.6705 348.152 60.2614 345.788 60.2614 342.909C60.2614 340.03 59.6705 337.652 58.4886 335.773C57.3068 333.864 55.5644 332.439 53.2614 331.5C50.9583 330.53 48.125 330.045 44.7614 330.045H33.6705V405H11.1705ZM63.5795 362.455L86.7614 405H62.2159L39.4886 362.455H63.5795ZM25.3068 466.909L46.125 535.091H46.8977L67.7159 466.909H92.8977L61.4886 560H31.5341L0.125 466.909H25.3068ZM14.0455 715L14.0455 621.909H78.9545V640.182H36.5455V659.273H75.6364V677.591H36.5455V696.727H78.9545V715H14.0455ZM11.1705 870L11.1705 776.909H49.625C56.5947 776.909 62.6099 778.167 67.6705 780.682C72.7614 783.167 76.6856 786.742 79.4432 791.409C82.2008 796.045 83.5795 801.545 83.5795 807.909C83.5795 814.364 82.1705 819.848 79.3523 824.364C76.5341 828.848 72.5341 832.273 67.3523 834.636C62.1705 836.97 56.0341 838.136 48.9432 838.136H24.625L24.625 820.409H44.7614C48.1553 820.409 50.9886 819.97 53.2614 819.091C55.5644 818.182 57.3068 816.818 58.4886 815C59.6705 813.152 60.2614 810.788 60.2614 807.909C60.2614 805.03 59.6705 802.652 58.4886 800.773C57.3068 798.864 55.5644 797.439 53.2614 796.5C50.9583 795.53 48.125 795.045 44.7614 795.045H33.6705L33.6705 870H11.1705ZM63.5795 827.455L86.7614 870H62.2159L39.4886 827.455H63.5795Z" fill="#E3EEEE" style="mix-blend-mode:overlay"/>
</svg>
